<?xml version="1.0" encoding="utf-8"?>
<!-- Generator: Adobe Illustrator 24.1.2, SVG Export Plug-In . SVG Version: 6.00 Build 0)  -->
<svg version="1.1" id="Слой_1" xmlns="http://www.w3.org/2000/svg" xmlns:xlink="http://www.w3.org/1999/xlink" x="0px" y="0px"
	 viewBox="0 0 1606 94" style="enable-background:new 0 0 1606 94;" xml:space="preserve">
<g>
	<path d="M38.1,74.4l-7.5-4.5l-3.8-9v-36l3.8-9l7.5-4.5h30l7.5,4.5l3.8,9v4.5l-7.5,4.5h-3.8v-9l-3.8-4.5H41.9l-3.8,4.5v36l3.8,4.5
		h22.5l3.8-4.5v-9h3.8l7.5,4.5v4.5l-3.8,9l-7.5,4.5H38.1z"/>
	<path d="M86.9,74.4v-45h11.3v4.5l7.5-4.5h11.3v9h-15l-3.8,2.3v33.8H86.9z"/>
	<path d="M135.6,92.4l7.5-18l-3.8-2.3l-1.9-2.3l-16.9-40.5h11.3l15,36l15-36h11.3l-26.3,63H135.6z"/>
	<path d="M195.6,74.4l-7.5-4.5l-3.8-9V38.4h-7.5v-9h7.5V15.9l7.5-4.5h3.8v18h11.3v9h-11.3v22.5l3.8,4.5h7.5v9H195.6z"/>
	<path d="M214.4,47.4v-9h33.8v9H214.4z"/>
	<path d="M274.4,74.4v-54h-18.8v-9h48.8v9h-18.8v54H274.4z"/>
	<path d="M323.1,74.4l-7.5-4.5l-3.8-9v-18l3.8-9l7.5-4.5h22.5l7.5,4.5l3.8,9v13.5h-33.8v4.5l3.8,4.5h15l3.8-4.5h11.3l-3.8,9
		l-7.5,4.5H323.1z M345.6,49.7v-6.8l-3.8-4.5h-15l-3.8,4.5v6.8H345.6z"/>
	<path d="M375.6,74.4l-7.5-4.5l-3.8-9v-18l3.8-9l7.5-4.5h22.5l7.5,4.5l3.8,9l-7.5,4.5h-3.8v-4.5l-3.8-4.5h-15l-3.8,4.5v18l3.8,4.5
		h15l3.8-4.5v-4.5h3.8l7.5,4.5l-3.8,9l-7.5,4.5H375.6z"/>
	<path d="M439.4,74.4v-63h11.3v54h33.8v9H439.4z"/>
	<path d="M499.4,74.4l-3.8-2.3l-1.9-2.3l-1.9-4.5v-9l1.9-4.5l1.9-2.3l3.8-2.3h18.8l7.5,4.5v-9l-3.8-4.5H505l-1.9,2.3v2.3h-3.8
		l-7.5-4.5l3.8-4.5l7.5-4.5h22.5l7.5,4.5l3.8,9v27l1.9,4.5h-11.3l-1.9-4.5l-7.5,4.5H499.4z M521.9,65.4l3.8-2.3v-4.5l-3.8-2.3H505
		l-1.9,2.3v4.5l1.9,2.3H521.9z"/>
	<path d="M544.4,74.4v-63h11.3v22.5l7.5-4.5h15l7.5,4.5l3.8,9v18l-3.8,9l-7.5,4.5h-15l-7.5-4.5v4.5H544.4z M574.4,65.4l3.8-4.5v-18
		l-3.8-4.5h-15l-3.8,2.3v22.5l3.8,2.3H574.4z"/>
	<path d="M608.1,74.4l-7.5-4.5l-3.8-9v-18l3.8-9l7.5-4.5h22.5l7.5,4.5l3.8,9v18l-3.8,9l-7.5,4.5H608.1z M626.9,65.4l3.8-4.5v-18
		l-3.8-4.5h-15l-3.8,4.5v18l3.8,4.5H626.9z"/>
	<path d="M649.4,74.4v-45h11.3v4.5l7.5-4.5h11.3v9h-15l-3.8,2.3v33.8H649.4z"/>
	<path d="M694.4,74.4l-3.8-2.3l-1.9-2.3l-1.9-4.5v-9l1.9-4.5l1.9-2.3l3.8-2.3h18.8l7.5,4.5v-9l-3.8-4.5H700l-1.9,2.3v2.3h-3.8
		l-7.5-4.5l3.8-4.5l7.5-4.5h22.5l7.5,4.5l3.8,9v27l1.9,4.5h-11.3l-1.9-4.5l-7.5,4.5H694.4z M716.9,65.4l3.8-2.3v-4.5l-3.8-2.3H700
		l-1.9,2.3v4.5l1.9,2.3H716.9z"/>
	<path d="M758.1,74.4l-7.5-4.5l-3.8-9V38.4h-7.5v-9h7.5V15.9l7.5-4.5h3.8v18h11.3v9h-11.3v22.5l3.8,4.5h7.5v9H758.1z"/>
	<path d="M788.1,74.4l-7.5-4.5l-3.8-9v-18l3.8-9l7.5-4.5h22.5l7.5,4.5l3.8,9v18l-3.8,9l-7.5,4.5H788.1z M806.9,65.4l3.8-4.5v-18
		l-3.8-4.5h-15l-3.8,4.5v18l3.8,4.5H806.9z"/>
	<path d="M829.4,74.4v-45h11.3v4.5l7.5-4.5h11.3v9h-15l-3.8,2.3v33.8H829.4z"/>
	<path d="M870.6,22.7V11.4h11.3v11.3H870.6z M870.6,74.4v-45h11.3v45H870.6z"/>
	<path d="M904.4,74.4l-7.5-4.5l-3.8-9v-18l3.8-9l7.5-4.5h22.5l7.5,4.5l3.8,9v13.5h-33.8v4.5l3.8,4.5h15l3.8-4.5h11.3l-3.8,9
		l-7.5,4.5H904.4z M926.9,49.7v-6.8l-3.8-4.5h-15l-3.8,4.5v6.8H926.9z"/>
	<path d="M956.9,74.4l-7.5-4.5l-3.8-4.5l7.5-4.5h3.8v2.3l1.9,2.3h18.8l1.9-2.3v-4.5l-1.9-2.3h-20.6l-7.5-4.5l-3.8-9l3.8-9l7.5-4.5
		h18.8l7.5,4.5l3.8,4.5l-7.5,4.5h-3.8v-2.3l-1.9-2.3h-15l-1.9,2.3v4.5l1.9,2.3h20.6l7.5,4.5l3.8,9l-3.8,9l-7.5,4.5H956.9z"/>
	<path d="M1039.4,83.4l-7.5-4.5l-3.8-4.5l-3.8-9v-36l3.8-9l3.8-4.5l7.5-4.5h7.5v6.8l-3.8,2.3l-3.8,4.5l-3.8,9v27l3.8,9l3.8,4.5
		l3.8,2.3v6.8H1039.4z"/>
	<path d="M1076.9,74.4l-7.5-4.5l-3.8-9V38.4h-7.5v-9h7.5V15.9l7.5-4.5h3.8v18h11.3v9h-11.3v22.5l3.8,4.5h7.5v9H1076.9z"/>
	<path d="M1095.6,74.4v-45h11.3v4.5l7.5-4.5h7.5l7.5,4.5l7.5-4.5h11.3l7.5,4.5l3.8,9v31.5h-11.3V42.9l-3.8-4.5h-7.5l-3.8,2.3v33.8
		h-11.3V42.9l-3.8-4.5h-7.5l-3.8,2.3v33.8H1095.6z"/>
	<path d="M1170.6,83.4v-6.8l3.8-2.3l3.8-4.5l3.8-9v-27l-3.8-9l-3.8-4.5l-3.8-2.3v-6.8h7.5l7.5,4.5l3.8,4.5l3.8,9v36l-3.8,9l-3.8,4.5
		l-7.5,4.5H1170.6z"/>
	<path d="M1245.6,74.4l-7.5-4.5l-3.8-9V38.4h-7.5v-9h7.5V15.9l7.5-4.5h3.8v18h11.3v9h-11.3v22.5l3.8,4.5h7.5v9H1245.6z"/>
	<path d="M1275.6,74.4l-7.5-4.5l-3.8-9v-18l3.8-9l7.5-4.5h22.5l7.5,4.5l3.8,9v13.5h-33.8v4.5l3.8,4.5h15l3.8-4.5h11.3l-3.8,9
		l-7.5,4.5H1275.6z M1298.1,49.7v-6.8l-3.8-4.5h-15l-3.8,4.5v6.8H1298.1z"/>
	<path d="M1316.9,74.4v-45h11.3v4.5l7.5-4.5h11.3v9h-15l-3.8,2.3v33.8H1316.9z"/>
	<path d="M1354.4,74.4v-45h11.3v4.5l7.5-4.5h7.5l7.5,4.5l7.5-4.5h11.3l7.5,4.5l3.8,9v31.5h-11.3V42.9l-3.8-4.5h-7.5l-3.8,2.3v33.8
		h-11.3V42.9l-3.8-4.5h-7.5l-3.8,2.3v33.8H1354.4z"/>
	<path d="M1429.4,22.7V11.4h11.3v11.3H1429.4z M1429.4,74.4v-45h11.3v45H1429.4z"/>
	<path d="M1451.9,74.4v-45h11.3v4.5l7.5-4.5h15l7.5,4.5l3.8,9v31.5h-11.3V42.9l-3.8-4.5h-15l-3.8,2.3v33.8H1451.9z"/>
	<path d="M1511.9,74.4l-3.8-2.3l-1.9-2.3l-1.9-4.5v-9l1.9-4.5l1.9-2.3l3.8-2.3h18.8l7.5,4.5v-9l-3.8-4.5h-16.9l-1.9,2.3v2.3h-3.8
		l-7.5-4.5l3.8-4.5l7.5-4.5h22.5l7.5,4.5l3.8,9v27l1.9,4.5H1540l-1.9-4.5l-7.5,4.5H1511.9z M1534.4,65.4l3.8-2.3v-4.5l-3.8-2.3
		h-16.9l-1.9,2.3v4.5l1.9,2.3H1534.4z"/>
	<path d="M1560.6,74.4v-63h11.3v63H1560.6z"/>
</g>
</svg>
